<svg width="103" height="103" viewBox="0 0 103 103" fill="none" xmlns="http://www.w3.org/2000/svg">
<rect x="1.7142" y="51.67" width="70.19" height="70.19" rx="2" transform="rotate(-45 1.7142 51.67)" stroke="black" stroke-opacity="0.125" stroke-width="2"/>
<path d="M58.9369 43.4896C60.1023 43.0098 61.2678 44.1752 60.7879 45.3406L56.2633 55.2125C55.989 55.6924 55.6463 56.0352 55.1664 56.3094L45.2945 60.834C44.1291 61.3139 42.9636 60.1484 43.4435 58.983L47.9681 49.1111C48.2424 48.6312 48.5851 48.2885 49.065 48.0143L58.9369 43.4896ZM53.6582 53.7043C54.5494 52.8816 54.5494 51.442 53.6582 50.6193C52.8355 49.7281 51.3959 49.7281 50.5732 50.6193C49.682 51.442 49.682 52.8816 50.5732 53.7043C51.3959 54.5955 52.8355 54.5955 53.6582 53.7043ZM52.15 35.126C61.4734 35.126 69.1516 42.8041 69.1516 52.1275C69.1516 61.5195 61.4734 69.1291 52.15 69.1291C42.758 69.1291 35.1484 61.5195 35.1484 52.1275C35.1484 42.8041 42.758 35.126 52.15 35.126ZM52.15 65.8385C59.691 65.8385 65.8609 59.7371 65.8609 52.1275C65.8609 44.5865 59.691 38.4166 52.15 38.4166C44.5404 38.4166 38.439 44.5865 38.439 52.1275C38.439 59.7371 44.5404 65.8385 52.15 65.8385Z" fill="#00FFCC"/>
</svg>
